grf.mot
version=1
nRows=49
nColumns=19
inDegrees=yes
endheader
time	ground_force_vx	ground_force_vy	ground_force_vz	ground_force_px	ground_force_py	ground_force_pz	1_ground_force_vx	1_ground_force_vy	1_ground_force_vz	1_ground_force_px	1_ground_force_py	1_ground_force_pz	ground_torque_x	ground_torque_y	ground_torque_z	1_ground_torque_x	1_ground_torque_y	1_ground_torque_z	
0	96.8167	969.298	-63.9869	-0.18082	0	0.0851852	0	0	0	0	0	0	0	2.01154	0	0	0	0
0.001666	99.949	973.823	-63.7298	-0.183102	0	0.0852103	0	0	0	0	0	0	0	2.08492	0	0	0	0
0.003333	103.116	978.079	-63.4432	-0.185472	0	0.0852386	0	0	0	0	0	0	0	2.15713	0	0	0	0
0.005	106.312	982.05	-63.1265	-0.18793	0	0.0852701	0	0	0	0	0	0	0	2.22794	0	0	0	0
0.006666	109.532	985.721	-62.7793	-0.190474	0	0.0853047	0	0	0	0	0	0	0	2.29713	0	0	0	0
0.008333	112.77	989.077	-62.4015	-0.193102	0	0.0853425	0	0	0	0	0	0	0	2.36448	0	0	0	0
0.01	116.02	992.103	-61.9927	-0.195815	0	0.0853832	0	0	0	0	0	0	0	2.42977	0	0	0	0
0.011666	119.275	994.783	-61.5528	-0.198609	0	0.0854269	11.1233	26.94	-8.36112	0.0626699	0	-0.0260635	0	2.49279	0	0	-2.09485	0
0.013333	122.53	997.105	-61.0816	-0.201482	0	0.0854733	10.5311	32.7406	-8.63497	0.0669685	0	-0.0282232	0	2.55332	0	0	-2.18799	0
0.015	125.778	999.054	-60.579	-0.204432	0	0.0855224	9.86123	38.8279	-8.89047	0.0713387	0	-0.0304279	0	2.61117	0	0	-2.27819	0
0.016666	129.013	1000.62	-60.0451	-0.207457	0	0.0855738	9.11233	45.2015	-9.12617	0.0757751	0	-0.0326749	0	2.66612	0	0	-2.3651	0
0.018333	132.227	1001.78	-59.4799	-0.210553	0	0.0856274	8.28313	51.8608	-9.3406	0.0802718	0	-0.0349615	0	2.71799	0	0	-2.44837	0
0.02	135.415	1002.54	-58.8836	-0.213717	0	0.0856828	7.3725	58.8044	-9.53234	0.084823	0	-0.0372845	0	2.76658	0	0	-2.52768	0
0.021666	138.57	1002.87	-58.2563	-0.216945	0	0.0857398	6.37951	66.0307	-9.69999	0.0894224	0	-0.0396411	0	2.81172	0	0	-2.60269	0
0.023333	141.684	1002.77	-57.5984	-0.220233	0	0.0857981	5.30342	73.5373	-9.84215	0.094064	0	-0.042028	0	2.85323	0	0	-2.67307	0
0.025	144.751	1002.22	-56.9101	-0.223577	0	0.0858573	4.14365	81.3214	-9.95749	0.0987412	0	-0.044442	0	2.89095	0	0	-2.7385	0
0.026666	147.764	1001.23	-56.1919	-0.226972	0	0.085917	2.89981	89.38	-10.0447	0.103448	0	-0.0468799	0	2.92472	0	0	-2.79867	0
0.028333	150.716	999.767	-55.4443	-0.230414	0	0.0859767	1.57171	97.7091	-10.1025	0.108177	0	-0.0493382	0	2.9544	0	0	-2.85326	0
0.03	153.601	997.839	-54.6676	-0.233897	0	0.086036	0.159351	106.305	-10.1296	0.112922	0	-0.0518136	0	2.97984	0	0	-2.90199	0
0.031666	156.411	995.435	-53.8627	-0.237415	0	0.0860944	-1.33707	115.162	-10.1249	0.117676	0	-0.0543026	0	3.00094	0	0	-2.94456	0
0.033333	159.141	992.548	-53.0301	-0.240964	0	0.0861514	-2.91715	124.276	-10.0873	0.122432	0	-0.0568017	0	3.01756	0	0	-2.9807	0
0.035	161.783	989.172	-52.1705	-0.244536	0	0.0862063	-4.58031	133.64	-10.0156	0.127185	0	-0.0593074	0	3.02962	0	0	-3.01014	0
0.036666	164.331	985.304	-51.2847	-0.248126	0	0.0862587	-6.32572	143.25	-9.90885	0.131925	0	-0.0618162	0	3.03701	0	0	-3.03265	0
0.038333	166.778	980.939	-50.3737	-0.251728	0	0.0863078	-8.1524	153.098	-9.76612	0.136647	0	-0.0643244	0	3.03967	0	0	-3.04797	0
0.04	169.119	976.075	-49.4382	-0.255334	0	0.086353	-10.0591	163.177	-9.58651	0.141345	0	-0.0668285	0	3.03752	0	0	-3.05589	0
0.041666	171.348	970.709	-48.4792	-0.258937	0	0.0863937	-12.0445	173.481	-9.36919	0.14601	0	-0.0693249	0	3.03051	0	0	-3.05621	0
0.043333	173.457	964.84	-47.4977	-0.262531	0	0.0864291	-14.107	184.001	-9.11342	0.150636	0	-0.0718102	0	3.01861	0	0	-3.04873	0
0.045	175.443	958.469	-46.4949	-0.266108	0	0.0864585	-16.2446	194.729	-8.81852	0.155217	0	-0.0742809	0	3.00178	0	0	-3.03327	0
0.046666	177.299	951.597	-45.4718	-0.26966	0	0.0864811	-18.4555	205.658	-8.48389	0.159746	0	-0.0767334	0	2.98002	0	0	-3.0097	0
0.048333	179.02	944.224	-44.4295	-0.273181	0	0.0864961	-20.7374	216.778	-8.10903	0.164216	0	-0.0791643	0	2.95333	0	0	-2.97787	0
0.05	179.126	943.7	-44.3588	-0.273413	0	0.0864965	-20.8941	217.531	-8.08133	0.164509	0	-0.0793247	0	2.95122	0	0	-2.97518	0
0.051666	179.231	943.175	-44.2882	-0.273645	0	0.086497	-21.0508	218.285	-8.05362	0.164803	0	-0.0794851	0	2.94912	0	0	-2.9725	0
0.053333	179.337	942.651	-44.2175	-0.273877	0	0.0864974	-21.2075	219.038	-8.02592	0.165096	0	-0.0796455	0	2.94701	0	0	-2.96982	0
0.055	179.442	942.126	-44.1468	-0.274109	0	0.0864979	-21.3642	219.792	-7.99822	0.16539	0	-0.0798059	0	2.9449	0	0	-2.96714	0
0.056666	179.548	941.601	-44.0761	-0.274341	0	0.0864983	-21.521	220.545	-7.97052	0.165684	0	-0.0799663	0	2.94279	0	0	-2.96446	0
0.058333	179.653	941.077	-44.0054	-0.274573	0	0.0864988	-21.6777	221.299	-7.94281	0.165977	0	-0.0801267	0	2.94069	0	0	-2.96178	0
0.06	179.758	940.552	-43.9348	-0.274805	0	0.0864992	-21.8344	222.052	-7.91511	0.166271	0	-0.0802871	0	2.93858	0	0	-2.9591	0
0.061666	179.864	940.028	-43.8641	-0.275037	0	0.0864997	-21.9911	222.806	-7.88741	0.166565	0	-0.0804475	0	2.93647	0	0	-2.95642	0
0.063333	179.969	939.503	-43.7934	-0.275269	0	0.0865001	-22.1478	223.559	-7.8597	0.166858	0	-0.0806079	0	2.93436	0	0	-2.95374	0
0.065	180.075	938.978	-43.7227	-0.275501	0	0.0865005	-22.3045	224.312	-7.832	0.167152	0	-0.0807683	0	2.93226	0	0	-2.95106	0
0.066666	180.18	938.454	-43.652	-0.275733	0	0.086501	-22.4612	225.066	-7.8043	0.167446	0	-0.0809287	0	2.93015	0	0	-2.94838	0
0.068333	180.286	937.929	-43.5814	-0.275965	0	0.0865014	-22.6179	225.819	-7.7766	0.167739	0	-0.0810891	0	2.92804	0	0	-2.9457	0
0.07	180.391	937.405	-43.5107	-0.276197	0	0.0865019	-22.7746	226.573	-7.74889	0.168033	0	-0.0812495	0	2.92593	0	0	-2.94302	0
0.071666	180.496	936.88	-43.44	-0.276429	0	0.0865023	-22.9313	227.326	-7.72119	0.168326	0	-0.0814099	0	2.92383	0	0	-2.94033	0
0.073333	180.602	936.355	-43.3693	-0.276661	0	0.0865028	-23.088	228.08	-7.69349	0.16862	0	-0.0815703	0	2.92172	0	0	-2.93765	0
0.075	182.039	927.993	-42.2925	-0.280094	0	0.0865002	-25.5046	239.555	-7.23692	0.172953	0	-0.0839482	0	2.88522	0	0	-2.88897	0
0.076666	183.327	919.143	-41.2002	-0.283471	0	0.0864877	-27.9846	251.193	-6.73905	0.177208	0	-0.0862945	0	2.84387	0	0	-2.83173	0
0.078333	184.462	909.81	-40.0938	-0.286785	0	0.0864642	-30.5249	262.984	-6.1997	0.181379	0	-0.0886063	0	2.79773	0	0	-2.76588	0
0.08	185.44	900.001	-38.9747	-0.290026	0	0.086429	-33.1226	274.918	-5.61877	0.18546	0	-0.0908805	0	2.74687	0	0	-2.69139	0
